<svg width="60" height="61" viewBox="0 0 60 61" fill="none" xmlns="http://www.w3.org/2000/svg">
<path d="M51.15 0H8.85C3.96228 0 0 3.95723 0 8.83872V51.0848C0 55.9663 3.96228 59.9235 8.85 59.9235H51.15C56.0377 59.9235 60 55.9663 60 51.0848V8.83872C60 3.95723 56.0377 0 51.15 0Z" fill="#EDB2AD"/>
<path d="M23.2634 37.1333C23.2634 37.1333 16.1288 38.2314 11.8331 44.3385C7.53732 50.4456 9.015 60.0031 9.015 60.0031H51.5432C51.5432 60.0031 51.8911 47.6917 47.1533 42.96C43.0762 38.888 36.6038 36.9883 36.6038 36.9883L23.2634 37.1333Z" fill="#110120"/>
<path d="M27.9457 19.4239L23.7952 17.6055L21.7559 20.0773L22.7037 24.7325L24.8516 26.739L27.9457 19.4239Z" fill="#D48153"/>
<path d="M40.3366 29.834C40.1434 30.276 39.9094 30.6991 39.6376 31.0978C38.6802 32.4811 37.2744 33.3832 35.227 33.3832V37.1093H24.1621V16.3672L41.0515 16.9489C41.0515 16.9489 42.4781 25.0035 40.3366 29.834Z" fill="#D48153"/>
<path d="M26.1984 25.4585C26.1984 25.4585 26.6357 28.8754 23.6452 29.3121C23.6452 29.2388 22.4069 24.2951 19.9319 21.0248C17.4569 17.7545 19.2027 14.1176 20.6596 13.2443C20.5862 13.2443 20.8782 8.7357 25.683 7.86394C30.4878 6.99218 39.1543 11.4274 40.7548 10.8441C42.3554 10.2608 41.8479 8.73566 41.8479 8.73566C41.8479 8.73566 47.891 16.3712 39.5181 17.3162C31.1452 18.2613 28.8873 17.4629 28.8873 17.4629L28.0894 21.6065C28.0894 21.6065 26.342 17.8979 24.1575 19.2797C21.9729 20.6614 22.7038 25.3135 26.1984 25.4585Z" fill="#110120"/>
<path d="M35.2286 32.9957C35.2286 32.9957 32.1711 33.6332 28.8009 31.6267C28.7227 31.5358 30.8387 35.1552 35.2286 34.8954V32.9957Z" fill="#B55E33"/>
<path d="M31.3818 20.7192L27.7148 20.7422L27.7189 21.3797L31.3858 21.3566L31.3818 20.7192Z" fill="#110120"/>
<path d="M36.1655 23.4279H30.9395V19.8086H36.1655V23.4279ZM31.5778 22.7904H35.5272V20.4461H31.5778V22.7904Z" fill="#110120"/>
<path d="M42.937 23.4279H37.7109V19.8086H42.937V23.4279ZM38.3492 22.7904H42.2987V20.4461H38.3492V22.7904Z" fill="#110120"/>
<path d="M38.3487 21.6549H37.7104C37.7104 21.4503 37.629 21.2541 37.4841 21.1095C37.3393 20.9648 37.1428 20.8836 36.938 20.8836C36.8366 20.8836 36.7362 20.9035 36.6425 20.9423C36.5488 20.981 36.4636 21.0379 36.3919 21.1095C36.3202 21.1811 36.2633 21.2662 36.2245 21.3597C36.1857 21.4533 36.1656 21.5536 36.1656 21.6549H35.5273C35.5273 21.2813 35.676 20.923 35.9405 20.6588C36.2051 20.3946 36.5639 20.2461 36.938 20.2461C37.3121 20.2461 37.6709 20.3946 37.9355 20.6588C38.2 20.923 38.3487 21.2813 38.3487 21.6549Z" fill="#110120"/>
<path d="M24.1589 34.6953L30.0567 37.0938L28.4546 40.7307L22.1211 37.1672L24.1589 34.6953Z" fill="#F5F9FD"/>
<path d="M35.5224 34.6953L37.5586 37.4572L31.8059 40.949L30.0586 37.0938L35.5224 34.6953Z" fill="#F5F9FD"/>
<path d="M28.4548 40.7306L27.3633 60.0001H32.5335L31.8042 40.9489L30.0569 37.0938L28.4548 40.7306Z" fill="#72625A"/>
<path opacity="0.37" d="M31.8047 40.9489L28.918 39.6819L30.0573 37.0938L31.8047 40.9489Z" fill="#110120"/>
</svg>
