<svg width="30" height="31" viewBox="0 0 30 31" fill="none" xmlns="http://www.w3.org/2000/svg">
<path d="M25.575 0H4.425C1.98114 0 0 1.97861 0 4.41936V25.5424C0 27.9831 1.98114 29.9618 4.425 29.9618H25.575C28.0189 29.9618 30 27.9831 30 25.5424V4.41936C30 1.97861 28.0189 0 25.575 0Z" fill="#EDB2AD"/>
<path d="M11.6317 18.5667C11.6317 18.5667 8.06441 19.1157 5.91653 22.1693C3.76866 25.2228 4.5075 30.0016 4.5075 30.0016H25.7716C25.7716 30.0016 25.9455 23.8458 23.5766 21.48C21.5381 19.444 18.3019 18.4941 18.3019 18.4941L11.6317 18.5667Z" fill="#110120"/>
<path d="M13.9739 9.71195L11.8986 8.80273L10.8789 10.0387L11.3528 12.3663L12.4268 13.3695L13.9739 9.71195Z" fill="#D48153"/>
<path d="M20.1693 14.917C20.0727 15.138 19.9557 15.3495 19.8198 15.5489C19.3411 16.2406 18.6382 16.6916 17.6145 16.6916V18.5547H12.082V8.18359L20.5267 8.47444C20.5267 8.47444 21.24 12.5018 20.1693 14.917Z" fill="#D48153"/>
<path d="M13.0982 12.7292C13.0982 12.7292 13.3169 14.4377 11.8216 14.6561C11.8216 14.6194 11.2025 12.1476 9.965 10.5124C8.7275 8.87726 9.60037 7.05881 10.3288 6.62213C10.2921 6.62213 10.4381 4.36785 12.8405 3.93197C15.2429 3.49609 19.5762 5.71372 20.3764 5.42207C21.1767 5.13042 20.923 4.36783 20.923 4.36783C20.923 4.36783 23.9445 8.18559 19.7581 8.65812C15.5716 9.13066 14.4427 8.73143 14.4427 8.73143L14.0437 10.8033C14.0437 10.8033 13.17 8.94896 12.0778 9.63983C10.9855 10.3307 11.3509 12.6567 13.0982 12.7292Z" fill="#110120"/>
<path d="M17.6133 16.4988C17.6133 16.4988 16.0846 16.8176 14.3995 15.8143C14.3604 15.7689 15.4184 17.5786 17.6133 17.4487V16.4988Z" fill="#B55E33"/>
<path d="M15.6909 10.3606L13.8574 10.3721L13.8594 10.6908L15.6929 10.6793L15.6909 10.3606Z" fill="#110120"/>
<path d="M18.0818 11.714H15.4688V9.9043H18.0818V11.714ZM15.7879 11.3952H17.7626V10.223H15.7879V11.3952Z" fill="#110120"/>
<path d="M21.4685 11.714H18.8555V9.9043H21.4685V11.714ZM19.1746 11.3952H21.1494V10.223H19.1746V11.3952Z" fill="#110120"/>
<path d="M19.1743 10.8275H18.8552C18.8552 10.7252 18.8145 10.6271 18.7421 10.5547C18.6696 10.4824 18.5714 10.4418 18.469 10.4418C18.4183 10.4418 18.3681 10.4517 18.3212 10.4711C18.2744 10.4905 18.2318 10.5189 18.1959 10.5547C18.1601 10.5906 18.1316 10.6331 18.1122 10.6799C18.0928 10.7267 18.0828 10.7768 18.0828 10.8275H17.7637C17.7637 10.6406 17.838 10.4615 17.9703 10.3294C18.1025 10.1973 18.2819 10.123 18.469 10.123C18.6561 10.123 18.8355 10.1973 18.9677 10.3294C19.1 10.4615 19.1743 10.6406 19.1743 10.8275Z" fill="#110120"/>
<path d="M12.0794 17.3477L15.0284 18.5469L14.2273 20.3653L11.0605 18.5836L12.0794 17.3477Z" fill="#F5F9FD"/>
<path d="M17.7612 17.3477L18.7793 18.7286L15.903 20.4745L15.0293 18.5469L17.7612 17.3477Z" fill="#F5F9FD"/>
<path d="M14.2274 20.3653L13.6816 30.0001H16.2667L15.9021 20.4745L15.0284 18.5469L14.2274 20.3653Z" fill="#72625A"/>
<path opacity="0.37" d="M15.9023 20.4745L14.459 19.841L15.0287 18.5469L15.9023 20.4745Z" fill="#110120"/>
</svg>
