<svg width="11" height="12" viewBox="0 0 11 12" fill="none" xmlns="http://www.w3.org/2000/svg">
<g clip-path="url(#clip0)">
<path d="M9.33333 1.5H8.88892V0.499969C8.88892 0.22403 8.68978 0 8.44442 0H8C7.75464 0 7.55558 0.22403 7.55558 0.499969V1.5H3.11108V0.499969C3.11108 0.22403 2.91203 0 2.66667 0H2.22225C1.97689 0 1.77775 0.22403 1.77775 0.499969V1.5H1.33333C0.598226 1.5 0 2.173 0 3V10.5C0 11.327 0.598226 12 1.33333 12H9.33333C10.0684 12 10.6667 11.327 10.6667 10.5V3C10.6667 2.173 10.0684 1.5 9.33333 1.5ZM9.77775 10.5C9.77775 10.7755 9.57821 11 9.33333 11H1.33333C1.08846 11 0.888916 10.7755 0.888916 10.5V5.02002H9.77775V10.5Z" fill="#001689"/>
</g>
<defs>
<clipPath id="clip0">
<rect width="10.6667" height="12" fill="white"/>
</clipPath>
</defs>
</svg>
