<svg width="10" height="12" viewBox="0 0 10 12" fill="none" xmlns="http://www.w3.org/2000/svg">
<path d="M4.66667 0C2.09378 0 0 2.033 0 4.5325C0 8.084 4.228 11.751 4.40793 11.905C4.48207 11.9685 4.57437 12 4.66667 12C4.75896 12 4.85126 11.9685 4.92541 11.9055C5.10533 11.751 9.33333 8.084 9.33333 4.5325C9.33333 2.033 7.23956 0 4.66667 0ZM4.66667 7C3.23711 7 2.07407 5.8785 2.07407 4.5C2.07407 3.1215 3.23711 2 4.66667 2C6.09622 2 7.25926 3.1215 7.25926 4.5C7.25926 5.8785 6.09622 7 4.66667 7Z" fill="#001689"/>
</svg>
